# xmcd CD database file
#
# Track frame offsets:
#	225
#	27784
#	59303
#	80882
#	101040
#	132090
#	158758
#	177088
#	194381
#	211554
#	232436
#	255624
#	283780
#
# Disc length: 4118 seconds
#
# Revision: 0
# Processed by: cddbd v1.5.2PL0 Copyright (c) Steve Scherf et al.
# Submitted via: CDex 1.51
#
DISCID=b710130d
DTITLE=Various Artist - Escalator
DYEAR=2006
DGENRE=Jazz
TTITLE0=Stephane Huchard - Stephane Huchard - Escalator
TTITLE1=Проект Дениса Швытова "Пернатый змей" - Piano
TTITLE2=Нино Катамадзе и группа "Insight" - I Came
TTITLE3=Alissid Jazz! - When You Paint Me Long
TTITLE4=Stephane Huchard - Mr Smile
TTITLE5=Алексей Козлов и ансамбль "Арсенал" - Пролог
TTITLE6="Джаз-бас Театр" Алекса Ростоцкого - Африканская деревня
TTITLE7=Alissid Jazz! - Factory of Toys
TTITLE8=Stacey Kent and Jim Tomlinson - Corcovado
TTITLE9=Алексей Козлов и ансамбль "Арсенал" - От Судьбы не уйдешь
TTITLE10=Анатолий Герасимов - To Burn But Not On Fire
TTITLE11="Джаз-бас Театр" Алекса Ростоцкого - Звонили звоны в Новгороде
TTITLE12=Проект Дениса Швытова "Пернатый змей" - One man twist
EXTD=YEAR: 2006
EXTT0=
EXTT1=
EXTT2=
EXTT3=
EXTT4=
EXTT5=
EXTT6=
EXTT7=
EXTT8=
EXTT9=
EXTT10=
EXTT11=
EXTT12=
PLAYORDER=
